PathFileType	3	(X/Y/Z)	D:\Jess\PFP\Labelled\PA11\20250805\SRRun01.trc
DataRate	CameraRate	NumFrames	NumMarkers	Units	OrigDataRate	OrigDataStartFrame	OrigNumFrames
250.0	250.0	4	33	mm	250.0	35937	2501
Frame#	Time	C7			T10			CLAV			LSHO			RSHO			LASIS			RASIS			LPSIS			RPSIS			LILCR			RILCR			LGTR			LTHI			LLTHI			LLEP			LPSH			LLSH			LDSH			LLMAL			LTOE			L5TH			LHEE			RGTR			RTHI			RLTHI			RLEP			RPSH			RLSH			RDSH			RLMAL			RTOE			R5TH			RHEE			
		X1	Y1	Z1	X2	Y2	Z2	X3	Y3	Z3	X4	Y4	Z4	X5	Y5	Z5	X6	Y6	Z6	X7	Y7	Z7	X8	Y8	Z8	X9	Y9	Z9	X10	Y10	Z10	X11	Y11	Z11	X12	Y12	Z12	X13	Y13	Z13	X14	Y14	Z14	X15	Y15	Z15	X16	Y16	Z16	X17	Y17	Z17	X18	Y18	Z18	X19	Y19	Z19	X20	Y20	Z20	X21	Y21	Z21	X22	Y22	Z22	X23	Y23	Z23	X24	Y24	Z24	X25	Y25	Z25	X26	Y26	Z26	X27	Y27	Z27	X28	Y28	Z28	X29	Y29	Z29	X30	Y30	Z30	X31	Y31	Z31	X32	Y32	Z32	X33	Y33	Z33	

938	143.744	1033.478850213522	1528.4495956286	-330.961299360936	954.8485280962057	1315.710637950507	-294.9042515786977	1155.98349594734	1428.50463380841	-367.626089789704	1070.466748663473	1505.636075969639	-488.9046456500981	1142.644952196486	1508.665149693972	-208.1603834988849	1138.742976495133	1075.376773070537	-464.875153065008	1152.343198478613	1058.387757469697	-216.03680359431	951.1777493728415	1109.300115894291	-366.9037691236075	954.7390787011685	1113.47834340236	-332.959283694151	1059.655508209606	1145.998241244288	-507.318033469649	1086.483495238408	1140.239859742137	-170.9739016856332	1086.635729087098	964.1238457439865	-555.9400616275799	1217.245012272685	790.1908495015904	-446.9888324716594	1144.21430390121	656.3566790358121	-501.4651309072988	1160.408303921288	532.106187305273	-483.3278877724687	1234.545110674576	471.4013011546809	-430.0056944946222	1150.673802845004	314.2563247618755	-468.2479669824056	1224.267058323164	206.1989529457917	-395.3001106667216	1165.49042169155	101.0631521838009	-412.358338479398	1328.409161131024	88.16922379436352	-401.9400363391715	1301.241059670462	47.6066482302674	-440.285715101549	1109.639159641917	71.28922972898465	-350.7883594509899	1042.959377690373	990.9302107408926	-128.6660693140051	1143.906272113135	742.0732090610607	-233.5744153009125	1011.122569574643	655.9620054966064	-167.5459841252276	979.1417467858471	514.878518646377	-182.8323528751646	958.262810499152	423.3773937403632	-237.6667652697393	788.8362138587576	412.4932109243902	-183.6817313377585	746.3842656430701	293.4420136794433	-229.429896120679	623.0943005909	288.3048137299654	-211.1167924088024	634.2848369719134	130.5071296739022	-195.54422489613	587.1577603923333	159.4128709017017	-171.9134685722365	577.9930156053109	331.2409386219824	-281.5167918370883	
939	143.748	1033.152125466604	1525.707852173754	-332.2709324087331	954.3705667151793	1312.596125574671	-296.0094542287167	1155.787626718082	1425.029297896591	-368.156498054832	1070.675543620265	1502.211415655694	-490.189319824446	1142.192042920945	1505.51728805134	-208.4803989298612	1138.054211182169	1072.086123323951	-465.5698350767711	1151.992996212378	1055.467094667518	-216.3947528709945	949.7998303247839	1104.870430893911	-366.624077016531	953.5874828455088	1109.044679430968	-332.6127317953335	1059.002538479905	1142.174864876946	-508.0408820035781	1086.035946151644	1137.106589670715	-171.201681898583	1084.887296976646	960.027882164008	-556.0785961391808	1217.300075062634	788.1478925044808	-447.3176876511296	1143.453111902342	653.6695657888496	-501.2117995962536	1159.082793018388	529.30176872578	-483.0150172502451	1233.014354293071	468.0070620452115	-429.2498686965768	1147.606660984502	312.0011564661535	-467.3802638106424	1218.982288484239	203.3367967851989	-393.4147645483055	1158.180532388153	99.9299775430389	-410.9938044837989	1320.832222452105	84.28268758949918	-400.1974032963733	1292.821017308801	45.11426568209899	-439.4326952307851	1101.299568221498	71.39732419361596	-349.7657298644299	1043.550054492257	986.6269749377476	-128.7033748714631	1146.856026354133	739.240292934251	-234.1226084735444	1014.81905585788	651.4025908720785	-167.5164650030393	984.4922275675665	511.0017084305458	-181.9749241556131	963.0476397291525	420.1220775522505	-236.4328067883178	793.0247872538281	411.7766127234022	-182.9028405695788	749.0262056914378	293.4502428233091	-228.3849077956205	625.5489362222958	290.3102531097223	-210.4237165236855	635.7663680237137	132.7004893146906	-193.3312808611524	588.8168104917503	162.2369700297208	-169.9935345173046	580.729865605404	333.0053317804599	-281.2664966229363	
940	143.752	1032.849846642014	1522.98349327196	-333.6119157963832	953.8962818266024	1309.408414418541	-297.1257676400081	1155.613852450841	1421.475010626351	-368.6701388078286	1070.913335970436	1498.724432824089	-491.5338190985246	1141.740957625881	1502.327436755819	-208.6999699515002	1137.268322796166	1068.682453943911	-466.3394856818559	1151.582381357737	1052.353643927608	-216.8414793061899	948.2504793043523	1100.254431582924	-366.2581626393021	952.2257213160528	1104.398228960944	-332.1643135765403	1058.286465782247	1138.201105278865	-508.7697965276915	1085.657174290184	1133.768214491154	-171.4319079319077	1082.958547740938	956.0174483821594	-556.2668197491182	1217.286344687268	786.2346025925162	-447.7768749510578	1142.414337402336	651.116088683865	-501.0045406908703	1157.685987940053	526.6316692191986	-482.6952505331838	1231.469662575149	464.7877755321421	-428.3346644621623	1144.563706900686	309.9513306000141	-466.4797014848182	1213.5578136697	200.6951515372383	-391.4658567885302	1150.68232427162	99.05364752978744	-409.5677915411601	1313.01733971109	80.76219048939581	-398.5614397240004	1284.194293674195	42.9937604305543	-438.6824328803569	1092.818442233108	71.61608992775372	-348.7204005038753	1044.177477264706	982.0320658561877	-128.7433945938766	1149.832323274051	736.3874200448749	-234.6071757707339	1018.589163846415	646.8617059164974	-167.441424734515	989.9229753860577	507.1325813355407	-181.0888250744564	968.0349437922252	416.9211766074528	-235.1730755890493	797.4794044158667	410.9081822791622	-182.0889831753716	751.9792782148836	293.3831450260491	-227.3826493500897	628.3635523192926	292.1802004346297	-209.7538060276487	637.6908043738227	134.7714337161854	-191.2570029386253	590.9033962388606	164.8847098494758	-168.196498826776	583.7986162634833	334.6684206694373	-280.9910548590088	
941	143.756	1032.585814402523	1520.302861492235	-334.9798802512486	953.4216091686295	1306.187303611819	-298.2516754882472	1155.461884508303	1417.858202216864	-369.1642899475011	1071.185693924507	1495.194009265457	-492.9355956454856	1141.292307205593	1499.114209279305	-208.8143791120155	1136.372818910946	1065.192069662005	-467.189771750209	1151.09956919423	1049.057904714304	-217.3768395204665	946.5369132811971	1095.485475319641	-365.796378203727	950.6554395716113	1099.564757984231	-331.6078455216349	1057.486477976922	1134.111406565747	-509.4945148854763	1085.32922678611	1130.238017748988	-171.6659040386778	1080.85159281589	952.139963233721	-556.5068324296408	1217.180841155144	784.4467674980577	-448.3833483814188	1141.112053125595	648.7107121557867	-500.845039788479	1156.248772307832	524.1266709388154	-482.3640529537014	1229.910307356246	461.7859030805979	-427.2450603924493	1141.542357006045	308.1346827364823	-465.5625916370753	1207.992375720682	198.2946652854176	-389.4855774098127	1143.009790792694	98.43449989519803	-408.1072179526241	1304.982094243716	77.62712652837421	-397.0491688333213	1275.389042578268	41.24196290837826	-438.0349561640596	1084.213913758215	71.9332037930819	-347.6755948186688	1044.841699605527	977.1694323785299	-128.7896164673319	1152.822750705389	733.5501765182875	-235.0193977415522	1022.443190606294	642.3743644578115	-167.3216362527104	995.4388843007115	503.2934361773006	-180.1891564120038	973.228941582398	413.7915326409459	-233.9018984055623	802.199982094843	409.9009107257868	-181.2452916976588	755.2484160981105	293.249637811147	-226.4289475516672	631.5389906563053	293.9153820926069	-209.1067236033951	640.0650894847565	136.7158054881977	-189.329005785549	593.4263299018463	167.349627112145	-166.5213225995792	587.1924193974997	336.230411888035	-280.6858913437251	
